<svg width="97" height="86" viewBox="0 0 97 86" fill="none" xmlns="http://www.w3.org/2000/svg">
<g clip-path="url(#clip0_683_101)">
<path d="M84.6213 18.8192H1.14062V76.3108H84.6213V18.8192Z" fill="#0C768F" stroke="#F4871A" stroke-width="3" stroke-miterlimit="10"/>
<path d="M16.2488 28.5697H8.31055V35.9534H16.2488V28.5697Z" stroke="black" stroke-miterlimit="10"/>
<path d="M16.2488 43.3293H8.31055V50.713H16.2488V43.3293Z" stroke="black" stroke-miterlimit="10"/>
<path d="M31.6082 43.3293H23.6699V50.713H31.6082V43.3293Z" stroke="black" stroke-miterlimit="10"/>
<path d="M46.8542 43.3293H38.916V50.713H46.8542V43.3293Z" stroke="black" stroke-miterlimit="10"/>
<path d="M46.8542 58.3418H38.916V65.7255H46.8542V58.3418Z" stroke="black" stroke-miterlimit="10"/>
<path d="M31.6082 58.3418H23.6699V65.7255H31.6082V58.3418Z" stroke="black" stroke-miterlimit="10"/>
<path d="M16.4011 58.3418H8.46289V65.7255H16.4011V58.3418Z" stroke="black" stroke-miterlimit="10"/>
<path d="M31.7761 28.5697H23.8379V35.9534H31.7761V28.5697Z" stroke="black" stroke-miterlimit="10"/>
<path d="M46.8542 28.5697H38.916V35.9534H46.8542V28.5697Z" stroke="black" stroke-miterlimit="10"/>
<path d="M62.0925 28.5697H54.1543V35.9534H62.0925V28.5697Z" stroke="black" stroke-miterlimit="10"/>
<path d="M77.3289 28.5697H69.3906V35.9534H77.3289V28.5697Z" stroke="black" stroke-miterlimit="10"/>
<path d="M84.6213 6.68665H1.14062V18.8192H84.6213V6.68665Z" fill="#0C768F" stroke="#F4871A" stroke-width="3" stroke-miterlimit="10"/>
<path d="M20.2415 1.14893H14.0293V12.2321H20.2415V1.14893Z" fill="#0C768F" stroke="#F4871A" stroke-miterlimit="10"/>
<path d="M45.9876 1.14893H39.7754V12.2321H45.9876V1.14893Z" fill="#0C768F" stroke="#F4871A" stroke-miterlimit="10"/>
<path d="M71.4895 1.14893H65.2773V12.2321H71.4895V1.14893Z" fill="#0C768F" stroke="#F4871A" stroke-miterlimit="10"/>
<path d="M74.7751 80.378C83.9717 80.378 91.4271 72.8679 91.4271 63.6038C91.4271 54.3397 83.9717 46.8297 74.7751 46.8297C65.5784 46.8297 58.123 54.3397 58.123 63.6038C58.123 72.8679 65.5784 80.378 74.7751 80.378Z" stroke="#F4871A" stroke-width="2" stroke-miterlimit="10"/>
<path d="M74.7755 85.2341C86.6346 85.2341 96.2483 75.5499 96.2483 63.6038C96.2483 51.6578 86.6346 41.9736 74.7755 41.9736C62.9164 41.9736 53.3027 51.6578 53.3027 63.6038C53.3027 75.5499 62.9164 85.2341 74.7755 85.2341Z" stroke="#F4871A" stroke-width="2" stroke-miterlimit="10"/>
<path d="M74.7754 53.6849V63.6039H82.5539" stroke="#F4871A" stroke-width="2" stroke-miterlimit="10"/>
</g>
<defs>
<clipPath id="clip0_683_101">
<rect width="97" height="86" fill="white"/>
</clipPath>
</defs>
</svg>
