<svg width="17" height="26" viewBox="0 0 17 26" fill="none" xmlns="http://www.w3.org/2000/svg">
<g clip-path="url(#clip0_683_196)">
<path d="M8.49806 22.0265C5.07817 22.0265 2.30469 22.9139 2.30469 24.0161C2.30469 25.1182 5.07817 26.0056 8.49806 26.0056C11.9179 26.0056 14.6914 25.1182 14.6914 24.0161C14.6914 22.9139 11.9179 22.0265 8.49806 22.0265ZM8.47596 24.8639C5.80745 24.8639 3.64723 24.4795 3.64723 24.0104C3.64723 23.5413 5.80745 23.1569 8.47596 23.1569C11.1445 23.1569 13.3047 23.5413 13.3047 24.0104C13.3047 24.4795 11.1445 24.8639 8.47596 24.8639Z" fill="#F8AE20"/>
<path d="M8.49724 0C3.80663 0 0 3.89435 0 8.69304C0 13.4917 3.80663 17.3861 8.49724 17.3861C13.1878 17.3861 16.9945 13.4917 16.9945 8.69304C16.9945 3.89435 13.1934 0 8.49724 0ZM8.47514 13.5483C5.85635 13.5483 3.72928 11.3778 3.72928 8.69304C3.72928 6.00826 5.85083 3.83783 8.47514 3.83783C11.0994 3.83783 13.221 6.00826 13.221 8.69304C13.221 11.3778 11.0994 13.5483 8.47514 13.5483Z" fill="#F8AE20"/>
<path d="M2.30469 14.6447L7.97872 20.766C8.26049 21.0712 8.73563 21.0712 9.01739 20.766L15.0726 14.2039" fill="#F8AE20"/>
</g>
<defs>
<clipPath id="clip0_683_196">
<rect width="17" height="26" fill="white"/>
</clipPath>
</defs>
</svg>
