<svg width="101" height="105" viewBox="0 0 101 105" fill="none" xmlns="http://www.w3.org/2000/svg">
<g clip-path="url(#clip0_683_81)">
<path d="M47.9766 11.334L9.28553 45.707L3.21484 42.6939L47.9766 2.92566V11.334Z" fill="#F8AE20" stroke="#1D1D1B" stroke-width="2" stroke-miterlimit="10"/>
<path d="M52.4023 11.334L91.5185 45.707L98.1123 42.509L52.4895 2.92566L52.4023 11.334Z" fill="#F8AE20" stroke="#1D1D1B" stroke-width="2" stroke-miterlimit="10"/>
<path d="M93.7422 49.8077V94.2424L99.911 100.29V47.0013L93.7422 49.8077Z" fill="#F8AE20" stroke="#1D1D1B" stroke-width="2" stroke-miterlimit="10"/>
<path d="M7.04064 49.8622V94.2969L1.08984 100.334V47.0449L7.04064 49.8622Z" fill="#F8AE20" stroke="#1D1D1B" stroke-width="2" stroke-miterlimit="10"/>
<path d="M4.40234 103.412H96.4435L90.3292 97.2555H10.2768L4.40234 103.412Z" fill="#F8AE20" stroke="#1D1D1B" stroke-width="2" stroke-miterlimit="10"/>
<path d="M11.9336 92.9916V49.9275L50.2105 15.8047L88.8798 48.9267V92.9916H11.9336Z" fill="#0C768F"/>
<path d="M17.8516 88.0531H47.9761" stroke="#1D1D1B" stroke-width="2" stroke-miterlimit="10"/>
<path d="M55.6387 88.0531H59.3116" stroke="#1D1D1B" stroke-width="2" stroke-miterlimit="10"/>
</g>
<defs>
<clipPath id="clip0_683_81">
<rect width="101" height="104" fill="white" transform="translate(0 0.5)"/>
</clipPath>
</defs>
</svg>
