<svg width="51" height="70" viewBox="0 0 51 70" fill="none" xmlns="http://www.w3.org/2000/svg">
<g clip-path="url(#clip0_683_178)">
<path d="M45.866 27.3914L45.8048 50.8138L25.4457 63.4712L24.0479 62.6035L20.8477 64.2604L25.4457 67.2369L48.7423 52.8049V28.3927L45.866 27.3914Z" fill="#8A8D8D"/>
<path d="M5.06636 50.8734L5.00513 27.323L2.12891 28.4523V52.8659L13.474 59.9191C13.474 59.9191 13.9907 58.0268 14.8419 57.0807C14.9584 56.9514 5.06785 50.8748 5.06785 50.8748L5.06636 50.8734Z" fill="#8A8D8D"/>
<path d="M40.8672 52.4852C40.8776 52.4358 43.9973 50.2281 43.9973 50.2281V36.8615L25.5527 25.1008L6.99609 36.9603V50.3197L10.1202 52.4866L10.0739 38.7945L24.5237 29.2182C24.5237 29.2182 24.9553 28.8462 25.3361 28.7372C25.5377 28.679 25.8573 28.9813 26.0739 29.2618L40.6447 38.7945L40.8672 52.4866V52.4852Z" fill="#8A8D8D"/>
<path d="M28.9439 37.1927H21.7832V40.9294H28.9439V37.1927Z" fill="#8A8D8D"/>
<path d="M28.9503 42.6139H21.7598V46.2095H28.9503V42.6139Z" fill="#8A8D8D"/>
<path d="M19.5496 62.6659C19.2793 62.7153 17.5171 62.958 15.9148 61.1602C15.9013 61.1442 15.8894 61.1297 15.8804 61.1108C15.7983 60.948 15.3995 60.0048 16.5166 58.7694L23.1262 48.7296L23.6877 48.3822H24.866C24.9063 48.3822 24.9451 48.3924 24.9795 48.4113L28.4157 50.3021C28.5471 50.3748 28.5725 50.5492 28.4665 50.6538L25.193 53.8963L30.7185 50.4925C30.7857 50.4518 30.826 50.3806 30.826 50.3036V45.5133C30.826 45.4769 30.832 45.4464 30.8499 45.4144C30.9604 45.2081 31.4308 44.3404 31.6743 44.1791C31.6787 44.1762 31.6832 44.1733 31.6877 44.1689L36.226 39.6141C36.226 39.6141 37.1206 39.3612 37.6537 39.5952C37.6821 39.6068 37.706 39.6257 37.7284 39.646L38.608 40.4846C38.6528 40.5268 38.6767 40.5849 38.6767 40.6445V42.0237C38.6767 42.0833 38.6513 42.1415 38.608 42.1836L34.3474 46.2458C34.2727 46.317 34.1577 46.3301 34.0666 46.2777L32.6285 45.4304C32.6285 45.4304 32.294 45.4697 32.294 45.9522V50.6248C32.294 50.6248 32.0207 51.4532 31.625 51.6988L31.2248 51.9531V52.3601L35.3868 54.482C35.5525 54.5663 35.551 54.7974 35.3838 54.8802L19.6138 62.6485C19.5929 62.6587 19.5735 62.6645 19.5511 62.6688L19.5496 62.6659Z" fill="#F8AE20"/>
<path d="M51 22.742C51.0209 20.7508 47.516 19.8439 47.516 19.8439C47.1113 5.60967 32.4837 1.19288 32.4837 1.19288L30.4781 9.91745V-0.847645C29.9614 -2.56262 27.7438 -2.71086 27.7438 -2.71086C27.7438 -2.71086 24.7959 -2.82859 22.9426 -2.71086C21.0893 -2.59314 20.4502 -1.1732 20.4502 -1.1732V10.1834L18.2729 1.30189C2.49542 6.89008 3.20029 19.9428 3.20029 19.9428C-0.0209036 20.9485 3.43323e-06 22.6722 3.43323e-06 22.6722V25.9757C10.8583 21.9542 25.4963 22.742 25.4963 22.742C41.6739 22.1112 51 25.9757 51 25.9757C51 25.9757 50.9791 24.7331 51 22.742ZM8.77653 19.8687C8.77653 19.8687 21.3492 16.3195 34.794 18.5287L41.6351 19.8687H8.77653Z" fill="#F8AE20"/>
</g>
<defs>
<clipPath id="clip0_683_178">
<rect width="51" height="70" fill="white"/>
</clipPath>
</defs>
</svg>
