<svg width="137" height="132" viewBox="0 0 137 132" fill="none" xmlns="http://www.w3.org/2000/svg">
<path d="M27.8748 35.7754H46.0794L65.3066 82.6845H66.1248L85.3521 35.7754H103.557V105.594H89.2385V60.1504H88.6589L70.5907 105.253H60.8407L42.7726 59.98H42.193V105.594H27.8748V35.7754Z" fill="#F8AE20"/>
<path d="M110.409 57.5938V55.5483L118.091 47.1392C118.992 46.1544 119.735 45.2983 120.318 44.571C120.902 43.8362 121.333 43.1468 121.614 42.5028C121.902 41.8513 122.045 41.1695 122.045 40.4574C122.045 39.6392 121.848 38.9309 121.455 38.3324C121.068 37.7339 120.538 37.2718 119.864 36.946C119.189 36.6203 118.432 36.4574 117.591 36.4574C116.697 36.4574 115.917 36.643 115.25 37.0142C114.591 37.3778 114.08 37.8892 113.716 38.5483C113.36 39.2074 113.182 39.9801 113.182 40.8665H110.5C110.5 39.5028 110.814 38.3059 111.443 37.2756C112.072 36.2453 112.928 35.4422 114.011 34.8665C115.102 34.2907 116.326 34.0028 117.682 34.0028C119.045 34.0028 120.254 34.2907 121.307 34.8665C122.36 35.4422 123.186 36.2187 123.784 37.196C124.383 38.1733 124.682 39.2604 124.682 40.4574C124.682 41.3134 124.527 42.1506 124.216 42.9688C123.913 43.7794 123.383 44.6847 122.625 45.6847C121.875 46.6771 120.833 47.8892 119.5 49.321L114.273 54.9119V55.0938H125.091V57.5938H110.409Z" fill="#F8AE20"/>
</svg>
