<svg width="28" height="29" viewBox="0 0 28 29" fill="none" xmlns="http://www.w3.org/2000/svg">
<path d="M25.8292 22.8236C25.8819 22.5847 25.9505 22.0472 25.7396 21.2979C25.6711 21.0536 25.5446 20.8309 25.376 20.6463L21.7711 16.7262C21.613 16.5525 21.4232 16.4222 21.2071 16.3353C20.775 16.1616 20.0108 15.9498 19.3098 16.1887C19.1201 16.2539 18.9514 16.3625 18.8039 16.5036L17.9606 17.2855C16.9592 18.2139 15.4677 18.3008 14.3662 17.4972C12.9854 16.4873 11.1619 14.8531 9.79683 12.5347C9.42263 11.8994 9.52804 11.085 10.0445 10.5637C10.6506 9.95563 11.3516 9.23894 11.3516 9.19007C11.3516 9.1032 12.5427 7.55579 11.2936 6.1224L7.66234 2.2403C7.54639 2.11542 7.41463 2.01226 7.26706 1.93624C6.79273 1.68106 5.71758 1.26841 4.63189 1.98511C4.54229 2.04483 4.46324 2.10999 4.38945 2.186L2.03361 4.5587C2.00198 4.59127 1.96509 4.62928 1.93874 4.66729C1.74374 4.90619 1.07967 5.75862 1.02697 6.52961C0.979535 7.25174 1.00589 8.33764 1.0217 8.75571C1.0217 8.87516 1.04278 8.98918 1.06913 9.10863C1.49603 10.8135 5.27487 24.1158 19.5733 27.4224C19.5733 27.4224 21.5023 27.8622 23.5419 25.7555C23.5419 25.7555 25.6764 23.7249 25.7818 23.0679C25.7923 22.9865 25.8029 22.905 25.8187 22.829L25.8292 22.8236Z" stroke="#F8AE20" stroke-width="2" stroke-miterlimit="10"/>
<path d="M22.1087 13.1264C22.1087 13.1264 22.9309 13.0395 22.4618 11.6659C22.4618 11.6659 21.6449 6.08976 15.4575 5.02014C15.4575 5.02014 14.6775 5.03643 14.7355 5.60653C14.7355 5.60653 14.6775 6.17663 15.3152 6.43724C15.3152 6.43724 20.106 7.22452 21.2022 12.6486C21.2022 12.6486 21.3867 13.2893 22.1087 13.1318V13.1264Z" fill="#F8AE20"/>
<path d="M26.9721 12.9147C26.9721 12.9147 27.7574 12.8061 27.3779 11.4922C26.9985 10.1782 25.2592 1.81677 15.9096 0.0521822C15.9096 0.0521822 15.1981 -0.241012 14.961 0.562556C14.961 0.562556 14.9346 1.5453 16.1942 1.57788C16.1942 1.57788 23.4779 3.08185 25.6861 11.0307C25.6861 11.0307 26.092 13.2459 26.9721 12.9147Z" fill="#F8AE20"/>
</svg>
